<svg width="20" height="14" viewBox="0 0 20 14" fill="none" xmlns="http://www.w3.org/2000/svg">
    <path d="M17.9186 0H2.08354C0.935099 0 0 0.9351 0 2.08358V11.2512C0 12.3997 0.935099 13.3348 2.08354 13.3348H17.9185C19.067 13.3348 20.0021 12.3997 20.0021 11.2512V2.08358C20.0021 0.9351 19.067 0 17.9186 0ZM19.1687 11.2512C19.1687 11.9404 18.6078 12.5013 17.9186 12.5013H2.08354C1.39429 12.5013 0.833409 11.9404 0.833409 11.2512V2.08358C0.833409 1.39433 1.39429 0.833448 2.08354 0.833448H17.9185C18.6078 0.833448 19.1687 1.39433 19.1687 2.08358V11.2512H19.1687Z" fill="#28B446"/>
    <path d="M19.5856 2.50049H0.416968C0.186944 2.50049 0.000244141 2.68719 0.000244141 2.91721V5.41748C0.000244141 5.6475 0.186944 5.8342 0.416968 5.8342H19.5857C19.8157 5.8342 20.0024 5.6475 20.0024 5.41748V2.91721C20.0024 2.68719 19.8157 2.50049 19.5856 2.50049ZM19.169 5.00075H0.833653V3.3339H19.1689V5.00075H19.169Z" fill="#28B446"/>
    <path d="M7.91799 8.33447H2.91746C2.68743 8.33447 2.50073 8.52117 2.50073 8.7512C2.50073 8.98122 2.68743 9.16788 2.91746 9.16788H7.91799C8.14801 9.16788 8.33471 8.98118 8.33471 8.75116C8.33471 8.52113 8.14801 8.33447 7.91799 8.33447Z" fill="#28B446"/>
    <path d="M7.91799 10.0015H2.91746C2.68743 10.0015 2.50073 10.1882 2.50073 10.4182C2.50073 10.6482 2.68743 10.8349 2.91746 10.8349H7.91799C8.14801 10.8349 8.33471 10.6482 8.33471 10.4182C8.33467 10.1882 8.14801 10.0015 7.91799 10.0015Z" fill="#28B446"/>
    <path d="M16.252 7.50098H15.4186C14.7293 7.50098 14.1685 8.06186 14.1685 8.75111V9.58452C14.1685 10.2738 14.7293 10.8346 15.4186 10.8346H16.252C16.9413 10.8346 17.5021 10.2738 17.5021 9.58452V8.75111C17.5021 8.0619 16.9413 7.50098 16.252 7.50098ZM16.6687 9.58456C16.6687 9.81458 16.482 10.0013 16.252 10.0013H15.4186C15.1886 10.0013 15.0019 9.81458 15.0019 9.58456V8.75115C15.0019 8.52112 15.1886 8.33442 15.4186 8.33442H16.252C16.482 8.33442 16.6687 8.52112 16.6687 8.75115V9.58456Z" fill="#28B446"/>
</svg>
