<svg width="24" height="32" viewBox="0 0 24 32" fill="none" xmlns="http://www.w3.org/2000/svg">
    <path d="M12.0002 0C5.38327 0 0 5.38327 0 12.0002C0 15.7218 1.92561 20.0441 5.72339 24.8472C8.50232 28.3618 11.2412 30.7907 11.3565 30.8923C11.7243 31.2168 12.2761 31.2169 12.644 30.8923C12.7592 30.7907 15.4981 28.3618 18.2771 24.8472C22.0748 20.0441 24.0005 15.7218 24.0005 12.0002C24.0005 5.38327 18.6172 0 12.0002 0V0ZM12.0002 28.8353C9.68785 26.6316 1.94599 18.7481 1.94599 12.0002C1.94599 6.4563 6.4563 1.94599 12.0002 1.94599C17.5442 1.94599 22.0545 6.4563 22.0545 12.0002C22.0545 18.7481 14.3125 26.6317 12.0002 28.8353Z" fill="#6CC51D"/>
    <path d="M19.4444 11.4238L12.6335 5.58581C12.2691 5.27348 11.7314 5.27348 11.367 5.58581L4.55609 11.4238C4.1481 11.7734 4.10085 12.3878 4.45058 12.7958C4.80031 13.2037 5.41457 13.251 5.82256 12.9013L6.64876 12.193V17.0275C6.64876 17.5648 7.08441 18.0005 7.62175 18.0005H16.3787C16.916 18.0005 17.3517 17.5648 17.3517 17.0275V12.193L18.1779 12.9013C18.5877 13.2526 19.2018 13.2019 19.5499 12.7958C19.8996 12.3878 19.8524 11.7735 19.4444 11.4238ZM15.4057 16.0545H8.59474V10.525L12.0002 7.60605L15.4057 10.525V16.0545Z" fill="#6CC51D"/>
</svg>
